<?xml version="1.0" standalone="no"?>
<!DOCTYPE svg PUBLIC "-//W3C//DTD SVG 1.1//EN" "http://www.w3.org/Graphics/SVG/1.1/DTD/svg11.dtd" >
<!--
2013-9-30: Created.
-->
<svg>
<metadata>
Created by iconfont
</metadata>
<defs>

<font id="iconfont" horiz-adv-x="1024" >
  <font-face
    font-family="iconfont"
    font-weight="500"
    font-stretch="normal"
    units-per-em="1024"
    ascent="896"
    descent="-128"
  />
    <missing-glyph />
    
    <glyph glyph-name="x" unicode="x" horiz-adv-x="1001"
d="M281 543q-27 -1 -53 -1h-83q-18 0 -36.5 -6t-32.5 -18.5t-23 -32t-9 -45.5v-76h912v41q0 16 -0.5 30t-0.5 18q0 13 -5 29t-17 29.5t-31.5 22.5t-49.5 9h-133v-97h-438v97zM955 310v-52q0 -23 0.5 -52t0.5 -58t-10.5 -47.5t-26 -30t-33 -16t-31.5 -4.5q-14 -1 -29.5 -0.5
t-29.5 0.5h-32l-45 128h-439l-44 -128h-29h-34q-20 0 -45 1q-25 0 -41 9.5t-25.5 23t-13.5 29.5t-4 30v167h911zM163 247q-12 0 -21 -8.5t-9 -21.5t9 -21.5t21 -8.5q13 0 22 8.5t9 21.5t-9 21.5t-22 8.5zM316 123q-8 -26 -14 -48q-5 -19 -10.5 -37t-7.5 -25t-3 -15t1 -14.5
t9.5 -10.5t21.5 -4h37h67h81h80h64h36q23 0 34 12t2 38q-5 13 -9.5 30.5t-9.5 34.5q-5 19 -11 39h-368zM336 498v228q0 11 2.5 23t10 21.5t20.5 15.5t34 6h188q31 0 51.5 -14.5t20.5 -52.5v-227h-327z" />
    

    
    <glyph glyph-name="bianji" unicode="&#58880;" d="M749.7882 618.5009l-12.9853 13.0058-353.0342-353.0342L501.2613 160.9807l327.0492 327.0441 7.0339-6.5034 27.5988 27.604L751.9539 620.1413 749.7882 618.5009zM932.7974 591.9803 815.2996 709.4781l-39.5203-39.0011 117.4917-117.4917L932.7974 591.9803zM344.7736 238.946l-39.5264-156.4877 157.0181 38.996L344.7736 238.946zM845.6274 245.9799V29.394688000000087c0-29.7697-24.3773-54.146-54.146-54.146H250.017792c-29.7708 0-54.146 24.3763-54.146 54.146V570.85824c0 29.7687 24.3763 54.146 54.146 54.146h324.878336V733.297408H250.017792c-89.8939 0-162.4392-72.5453-162.4392-162.4392V29.394688000000087c0-89.8939 72.5443-162.4392 162.4392-162.4392h541.463552c89.8929 0 162.4392 72.5453 162.4392 162.4392V245.97990399999992H845.627392z"  horiz-adv-x="1024" />

    
    <glyph glyph-name="fanhui1" unicode="&#58896;" d="M701.376 812 192 300 701.376-212 847.36-65.76 483.264 300 847.36 665.824Z"  horiz-adv-x="1024" />

    
    <glyph glyph-name="iconjia" unicode="&#58911;" d="M902.947 228.973h-332.293v-332.346c0-32.387-26.267-58.628-58.655-58.628-32.387 0-58.654 26.241-58.654 58.628v332.346h-332.295c-32.414 0-58.654 26.241-58.654 58.628 0 32.375 26.243 58.628 58.654 58.628h332.293v332.346c0 32.375 26.267 58.628 58.654 58.628 32.388 0 58.655-26.254 58.655-58.628v-332.347h332.293c32.414 0 58.655-26.252 58.655-58.626-0.001-32.387-26.241-58.626-58.655-58.626z"  horiz-adv-x="1024" />

    
    <glyph glyph-name="quanping1" unicode="&#58897;" d="M648.204576 437.108211c21.072842-21.072842 55.134316-21.072842 76.207158 0l193.913263 191.541895-1.239579-154.516211c-0.538947-21.719579 16.815158-40.690526 38.534737-40.205474l27.701895 0c21.773474 0.538947 39.774316 13.527579 40.313263 35.247158l1.131789 282.031158c0 0.431158-1.455158 0.700632-1.455158 1.077895l2.155789 19.725474c0.215579 10.940632-2.317474 20.695579-9.431579 27.701895-6.952421 7.060211-16.761263 11.317895-27.648 10.994526l-19.671579-0.431158c-0.431158 0-0.700632-0.161684-1.131789-0.215579l-281.653895 1.670737c-21.773474-0.485053-39.774316-18.485895-40.313263-40.259368l-0.053895-27.701895c3.341474-25.707789 23.552-40.690526 45.271579-40.205474l149.450105-0.592842-192.026947-189.763368C627.131734 492.242526 627.131734 458.181053 648.204576 437.108211zM378.892576 163.430737c-21.072842 21.072842-55.188211 21.072842-76.261053 0l-193.913263-190.356211 1.239579 150.959158c0.485053 21.773474-16.815158 40.744421-38.534737 40.205474L42.104365 164.239158c-21.827368-0.538947-39.828211-13.473684-40.313263-35.247158l-1.131789-279.713684c0-0.377263 1.455158-0.646737 1.455158-1.077895l-2.101895-19.671579c-0.215579-10.940632 2.317474-20.749474 9.377684-27.701895 6.952421-7.060211 16.761263-11.317895 27.594105-11.048421l19.725474 0.485053c0.377263 0 0.646737 0.161684 1.077895 0.161684l281.222737-1.670737c21.773474 0.538947 39.774316 18.539789 40.313263 40.313263l0 27.701895c-3.287579 25.653895-23.498105 39.019789-45.217684 38.534737L185.140997-104.210526l193.751579 191.434105C399.911523 108.242526 399.911523 142.357895 378.892576 163.430737zM1024.659313-150.775579l-1.131789 277.611789c-0.538947 21.719579-18.539789 34.708211-40.313263 35.193263l-27.701895 0.053895c-21.719579 0.485053-39.073684-18.485895-38.534737-40.205474l1.239579-150.042947-193.913263 191.595789c-21.072842 21.072842-55.134316 21.072842-76.207158 0s-21.072842-55.134316 0-76.207158L841.956155-104.210526l-147.078737-0.592842c-21.773474 0.485053-41.930105-12.880842-45.271579-38.534737l0-27.701895c0.538947-21.773474 18.593684-39.774316 40.313263-40.313263l277.611789 1.670737c0.431158 0 0.700632-0.161684 1.131789-0.161684l19.671579-0.485053c10.886737-0.269474 20.695579 3.988211 27.648 11.048421 7.114105 6.952421 9.647158 16.761263 9.431579 27.701895l-2.155789 19.671579C1023.204155-151.422316 1024.659313-151.152842 1024.659313-150.775579zM186.811734 703.078737l147.294316 0.592842C355.879523 703.132632 376.09005 718.169263 379.377628 743.823158l0 27.701895C378.838681 793.298526 360.837839 811.299368 339.064365 811.784421L57.841628 810.113684c-0.431158 0.053895-0.700632 0.215579-1.077895 0.215579L37.03826 810.760421C26.151523 811.029895 16.396576 806.772211 9.444155 799.712c-7.060211-7.006316-9.647158-16.761263-9.377684-27.701895l2.101895-19.725474c0-0.377263-1.455158-0.646737-1.455158-1.077895L1.791102 469.229474c0.485053-21.719579 18.485895-34.762105 40.313263-35.247158l29.318737 0C93.196576 433.497263 110.496786 452.414316 110.011734 474.133895L108.772155 627.464421l193.913263-190.356211c21.072842-21.072842 55.188211-21.072842 76.261053 0 21.018947 21.072842 21.018947 55.134316 0 76.207158L186.811734 703.078737z"  horiz-adv-x="1026" />

    
    <glyph glyph-name="player-play" unicode="&#58883;" d="M869.376 332.032c-50.176 30.72-635.904 391.168-665.6 408.576-36.864 22.528-73.728-6.144-73.728-44.032 0-29.696 0-776.192 0-819.2 0-41.984 40.96-62.464 71.68-44.032 43.008 25.6 630.784 387.072 667.648 409.6 32.768 20.48 32.768 69.632 0 89.088z"  horiz-adv-x="1024" />

    
    <glyph glyph-name="tianjiatupian" unicode="&#58980;" d="M455.613992 308.723416 490.656905 308.723416c0 39.744143 31.402678 71.916212 70.099517 71.916212L560.756422 416.528598C502.64682 416.528598 455.613992 368.301982 455.613992 308.723416zM560.756422 560.361023c-135.496436 0-245.33462-112.639207-245.33462-251.637608 0-138.994293 109.838184-251.638977 245.33462-251.638977 37.289482 0 72.628105 8.553663 104.275838 23.825129 82.129133 39.631883 139.344763 124.601741 140.997176 223.41928 0.024642 1.463487 0.054761 2.925605 0.054761 4.394568C806.082828 447.721816 696.246014 560.361023 560.756422 560.361023zM665.032261 164.27493c-29.135574-22.160395-65.207994-35.274279-104.275838-35.274279-96.799597 0-175.235103 80.473983-175.235103 179.722764 0 99.254257 78.435506 179.721395 175.235103 179.721395s175.235103-80.467138 175.235103-179.721395c0-1.468963-0.020535-2.933819-0.054761-4.394568C734.593752 246.937983 707.018865 196.210158 665.032261 164.27493zM1121.503275 485.248139 1121.503275 560.361023c0 59.510115-47.102648 107.805183-105.142431 107.805183l-175.235103 0 0 35.958791c0 59.578566-47.102648 107.875003-105.135586 107.875003l-350.470206 0c-58.039783 0-105.142431-48.296437-105.142431-107.875003l0-35.958791-175.235103 0c-58.039783 0-105.142431-48.225248-105.142431-107.805183l0-575.192797c0-59.510115 47.102648-107.799707 105.142431-107.799707L493.885064-122.63148l170.198463 0 0.948734 0 0 0.024642c26.550856 0.512015 48.117095 22.372594 48.117095 49.041186l0 0c0 26.667223-21.566239 48.529171-48.117095 49.041186l0 0.024642-0.948734 0L493.885064-24.499823l-346.756043 0c-27.407865 0-49.627129 22.498544-49.627129 50.328069L97.501893 529.312923c0 27.754228 22.219263 50.3267 49.627129 50.3267l215.118886 0 0 83.900651c0 27.755597 22.219263 50.328069 49.627129 50.328069l297.825748 0c27.407865 0 49.627129-22.497175 49.627129-50.328069l0-83.900651 215.049066 0c27.407865 0 49.627129-22.502651 49.627129-50.3267l-0.068451 0 0-224.984075 0.164283 0c1.5292-25.634979 22.966751-46.136117 48.968628-46.136117l0 0c26.986206 0 49.06446 22.079623 49.06446 49.06446L1122.133027 477.458391C1122.134396 480.107453 1121.913983 482.708599 1121.503275 485.248139zM1014.619446 198.88797l0-364.520501c0-25.502184-20.865298-46.367482-46.367482-46.367482l-5.396694 0c-25.502184 0-46.367482 20.865298-46.367482 46.367482L916.487788 198.88797c0 25.502184 20.865298 46.367482 46.367482 46.367482l5.396694 0C993.754147 245.255452 1014.619446 224.390153 1014.619446 198.88797zM783.294051 65.692863l364.520501 0c25.502184 0 46.367482-20.865298 46.367482-46.367482l0-5.396694c0-25.502184-20.865298-46.367482-46.367482-46.367482L783.294051-32.438794c-25.502184 0-46.367482 20.865298-46.367482 46.367482l0 5.396694C736.926569 44.827565 757.791867 65.692863 783.294051 65.692863z"  horiz-adv-x="1195" />

    
    <glyph glyph-name="sousuo" unicode="&#58882;" d="M461.406207 821.493076c210.022341 0 380.871497-170.85018 380.871497-380.841821 0-210.018248-170.849156-380.90015-380.871497-380.90015S80.533686 230.633007 80.533686 440.651254C80.533686 650.642896 251.383866 821.493076 461.406207 821.493076M461.406207 884.708839C216.134037 884.708839 17.317922 685.925471 17.317922 440.651254c0-245.271146 198.817138-444.115913 444.088284-444.115913 245.2384 0 444.087261 198.844767 444.087261 444.115913C905.493467 685.925471 706.644607 884.708839 461.406207 884.708839L461.406207 884.708839zM1008.683664-53.778578 967.318558-95.138568 743.839741 128.339226 785.201777 169.699216Z"  horiz-adv-x="1024" />

    
    <glyph glyph-name="fuzaijunheng" unicode="&#58972;" d="M870.4 236.8c-19.2 0-38.4-6.4-57.6-12.8l-192 352c32 32 57.6 70.4 57.6 121.6 0 89.6-70.4 160-160 160s-160-76.8-160-160c0-38.4 12.8-76.8 38.4-108.8l-198.4-358.4c-12.8 0-25.6 6.4-38.4 6.4-89.6 0-160-70.4-160-160s70.4-160 160-160c76.8 0 140.8 57.6 153.6 134.4h396.8c12.8-76.8 76.8-134.4 153.6-134.4 89.6 0 160 70.4 160 160s-64 160-153.6 160v0zM454.4 550.4c19.2-12.8 44.8-12.8 64-12.8 12.8 0 32 0 44.8 6.4l198.4-352c-19.2-19.2-32-44.8-38.4-76.8h-403.2c-6.4 38.4-32 70.4-57.6 89.6l192 345.6z"  horiz-adv-x="1024" />

    
    <glyph glyph-name="dikuai" unicode="&#58886;" d="M447.598224 383.270383c0-2.563382 0-4.755304 0-6.946202 0-104.862279-0.058328-209.724559 0.041956-314.585815 0.024559-25.995047-12.792351-43.763736-34.778084-55.793724-7.553023-4.133134-15.741519-5.937223-24.548092-5.925966-105.714693 0.1361-211.429387 0.088004-317.14408 0.088004-2.172479 0-4.343935 0-6.779404 0 0 127.948067 0 255.398808 0 383.163703C191.984522 383.270383 319.436286 383.270383 447.598224 383.270383zM384.063189 63.505615c0 85.551468 0 170.524768 0 255.564583-85.325317 0-170.298618 0-255.293407 0 0-85.401042 0-170.494069 0-255.564583C214.065424 63.505615 298.917974 63.505615 384.063189 63.505615zM64.317864 449.769936c0 127.731126 0 255.066233 0 382.789173 1.818415 0.091074 3.463891 0.246617 5.110391 0.246617 104.696504 0.011256 209.393008 0.041956 314.089511-0.010233 30.889521-0.01535 56.836473-20.643156 63.393819-50.172703 0.438998-1.974981 0.657986-4.041036 0.659009-6.065136 0.030699-107.59553 0.027629-215.19106 0.027629-322.786591 0-1.189082 0-2.379187 0-4.001127C319.840492 449.769936 192.266955 449.769936 64.317864 449.769936zM128.675638 768.396787c0-85.548398 0-170.521698 0-255.57277 85.322248 0 170.295548 0 255.301594 0 0 85.397972 0 170.490999 0 255.57277C298.68466 768.396787 213.83211 768.396787 128.675638 768.396787zM896.656707 832.612321c0-127.824247 0-255.159354 0-382.88434-127.539768 0-254.995625 0-383.304919 0 0 1.908466 0 4.03285 0 6.158257 0 104.867396 0.109494 209.733769-0.089028 314.601164-0.041956 21.920242 9.756201 38.182624 26.76048 50.700729 10.440793 7.686053 22.491247 11.549034 35.431977 11.561313 106.060571 0.103354 212.121142 0.061398 318.181713 0.056282C894.468878 832.803679 895.301849 832.701348 896.656707 832.612321zM576.74663 512.868019c85.547375 0 170.520675 0 255.574816 0 0 85.320201 0 170.293501 0 255.30364-85.396949 0-170.489976 0-255.574816 0C576.74663 682.881135 576.74663 598.028585 576.74663 512.868019zM513.351787 382.346337c128.188544 0 255.528767 0 383.173936 0 0-63.554478 0-126.895085 0-190.559057-21.134343 0-42.183751 0-63.842027 0 0 42.041512 0 84.042091 0 126.301568-85.600587 0-170.594353 0-255.867482 0 0-85.2455 0-170.238242 0-255.658727 42.421158 0 84.640726 0 127.245056 0 0-21.129226 0-41.838897 0-63.34777-1.802042 0-3.76372 0-5.725398 0-41.266869 0-82.535785 0.194428-123.80163-0.077771-22.134113-0.146333-38.505989 9.950629-50.909483 27.294646-6.972808 9.750061-10.408047 20.698414-10.385535 33.040511 0.196475 105.384166 0.112564 210.769354 0.112564 316.15352C513.351787 377.666758 513.351787 379.84026 513.351787 382.346337zM958.718181-1.806903c-20.211321-20.210297-40.934295-40.932248-61.231573-61.23055C833.969992 0.509862 770.154571 64.355983 706.803731 127.736499c20.029172 20.034289 40.836057 40.84629 61.231573 61.246923C831.098595 125.885338 894.886387 62.06173 958.718181-1.806903z"  horiz-adv-x="1024" />

    
    <glyph glyph-name="rili" unicode="&#59081;" d="M875.394451-63.349561l-728.256322 0c-46.406936 0-84.029812 37.620829-84.029812 84.027765L63.108317 664.904715c0 46.406936 37.622876 84.029812 84.029812 84.029812l112.039749 0 0-56.019875-140.049686 0 0-700.246385 784.273127 0L903.401318 692.914652 763.355725 692.914652l0 56.019875 112.039749 0c46.408983 0 84.029812-37.622876 84.029812-84.029812l0-644.22651C959.424262-25.728732 921.803433-63.349561 875.394451-63.349561zM651.315976 496.845091l112.039749 0 0-84.027765L651.315976 412.817326 651.315976 496.845091zM763.355725 132.71693 651.315976 132.71693 651.315976 216.746742l112.039749 0L763.355725 132.71693zM651.315976 356.796428l112.039749 0 0-84.029812L651.315976 272.766616 651.315976 356.796428zM693.330882 608.88484c-23.205515 0-42.014906 18.809391-42.014906 42.014906L651.315976 790.948409c0 23.205515 18.809391 42.016953 42.014906 42.016953 23.203468 0 42.014906-18.811438 42.014906-42.016953l0-140.049686C735.345788 627.694231 716.53435 608.88484 693.330882 608.88484zM455.247438 496.845091l112.039749 0 0-84.027765L455.247438 412.817326 455.247438 496.845091zM567.286164 132.71693 455.247438 132.71693 455.247438 216.746742l112.039749 0L567.287187 132.71693zM455.247438 356.796428l112.039749 0 0-84.029812L455.247438 272.766616 455.247438 356.796428zM399.227564 748.933503l224.078475 0 0-56.019875L399.227564 692.913629 399.227564 748.933503zM259.177877 216.746742l112.039749 0 0-84.029812L259.177877 132.71693 259.177877 216.746742zM259.177877 356.796428l112.039749 0 0-84.029812L259.177877 272.766616 259.177877 356.796428zM259.177877 496.845091l112.039749 0 0-84.027765L259.177877 412.817326 259.177877 496.845091zM329.202721 608.88484c-23.203468 0-42.014906 18.809391-42.014906 42.014906L287.187815 790.948409c0 23.205515 18.811438 42.016953 42.014906 42.016953s42.014906-18.811438 42.014906-42.016953l0-140.049686C371.217626 627.694231 352.406189 608.88484 329.202721 608.88484z"  horiz-adv-x="1024" />

    
    <glyph glyph-name="location" unicode="&#58971;" d="M470.075-96.719c0 0-334.521 426.837-334.521 609.809 0 182.94 149.785 331.251 334.521 331.251 184.719 0 334.495-148.293 334.495-331.251-0.002-182.978-334.495-609.809-334.495-609.809v0zM466.604 654.055c-78.625 0-142.39-63.13-142.39-141.037 0-77.863 63.755-140.995 142.39-140.995 78.668 0 142.405 63.13 142.405 140.995 0 77.885-63.732 141.037-142.405 141.037v0z"  horiz-adv-x="1024" />

    
    <glyph glyph-name="guangquan2" unicode="&#58923;" d="M942.485987 383.328711c0-118.069069-47.308469-224.974891-123.811864-303.199487L639.347898 390.789637l-1.596358-0.934279-45.396933 80.270185 339.421456 0 0 4.03592C938.086793 444.742433 942.485987 414.637788 942.485987 383.328711zM566.685995 515.515313l-93.523023 0L636.229884 798.06141c136.043443-41.824571 242.966661-148.934031 285.672298-284.554848l-354.084411 0L566.685995 515.515313zM418.338319 515.515313l-47.660486-84.270289L214.552006 701.709969C291.908838 773.186883 394.989541 817.205423 508.613368 817.205423c28.692482 0 56.681954-2.944052 83.814917-8.267291L423.07111 515.515313 418.338319 515.515313zM344.154759 384.346901l50.018184-88.426959L83.519694 295.919942c-5.754051 28.235065-8.798387 57.468876-8.798387 87.407746 0 109.783359 41.09086 209.755258 108.352777 286.174742L345.881077 387.41068 344.154759 384.346901zM431.553295 253.177466l86.117356 0L358.278431-22.924873c-124.907824 46.296419-223.069495 147.758252-263.400039 275.464819l336.674902 0L431.553295 253.177466zM572.663126 261.703653l-0.87288 0.499373 45.378513 80.253812 168.894641-292.600081c-75.223239-62.653969-171.919535-100.416014-277.450033-100.416014-37.34249 0-73.051783 6.028297-107.609857 14.896268L572.663126 261.703653z"  horiz-adv-x="1024" />

    
    <glyph glyph-name="jiance" unicode="&#58997;" d="M512 384m-128 0a4 4 0 1 0 256 0 4 4 0 1 0-256 0ZM512 608c163.2 0 313.6-140.8 387.2-224-73.6-83.2-224-224-387.2-224-163.2 0-313.6 140.8-387.2 224C198.4 467.2 348.8 608 512 608M512 704C230.4 704 0 384 0 384s230.4-320 512-320 512 320 512 320S793.6 704 512 704L512 704z"  horiz-adv-x="1024" />

    
    <glyph glyph-name="21" unicode="&#58925;" d="M800 768 512 480 224 768 128 672 416 384 128 96 224 0 512 288 800 0 896 96 608 384 896 672Z"  horiz-adv-x="1024" />

    
    <glyph glyph-name="jujiao" unicode="&#58943;" d="M816.891524 803.228083 626.334513 803.228083l0-76.224032 190.55701 0c21.029966 0 38.112016-17.08205 38.112016-38.109969l0-190.559057 76.221985 0L931.225525 688.893059C931.226548 752.014678 880.013143 803.228083 816.891524 803.228083zM168.99339 688.893059c0 21.027919 17.048281 38.109969 38.114063 38.109969l190.55701 0L397.664463 803.228083 207.107453 803.228083c-63.161528 0-114.334002-51.213405-114.334002-114.334002l0-190.559057 76.219939 0L168.99339 688.893059zM168.99339 79.107965 168.99339 269.665998l-76.219939 0 0-190.559057c0-63.161528 51.173496-114.334002 114.334002-114.334002l190.55701 0 0 76.224032L207.107453 40.996972C186.041672 40.996972 168.99339 58.042183 168.99339 79.107965zM855.00354 79.107965c0-21.065781-17.08205-38.109969-38.112016-38.109969L626.334513 40.997995l0-76.224032 190.55701 0c63.12162 0 114.334002 51.173496 114.334002 114.334002L931.225525 269.665998l-76.221985 0L855.00354 79.107965zM511.998465 536.447041c-84.187401 0-152.444994-68.261687-152.444994-152.447041 0-84.188424 68.257593-152.446018 152.444994-152.446018s152.447041 68.257593 152.447041 152.446018C664.444483 468.184331 596.184843 536.447041 511.998465 536.447041z"  horiz-adv-x="1024" />

    
    <glyph glyph-name="iconcamera" unicode="&#58987;" d="M510.154979-64.417893c-122.605386 0-245.210771-0.01535-367.81718 0.007163-52.42193 0.010233-78.271668 25.563212-78.276784 77.460186-0.023536 247.02407-0.023536 494.048139 0 741.072209 0.005117 51.120284 25.953092 77.369112 76.54842 77.375252 247.62782 0.031722 495.255641 0.031722 742.884484 0 49.877991-0.00614 76.454276-26.250874 76.464509-75.634608 0.047072-248.231571 0.048095-496.464165-0.001023-744.695736-0.010233-49.327452-26.637684-75.552743-76.54842-75.570139C758.991324-64.446545 634.573663-64.417893 510.154979-64.417893zM401.806295 379.818771c0-33.82641-0.282433-67.655889 0.088004-101.477182 0.306992-28.030403 23.112394-41.920762 47.202045-27.767414 59.320037 34.849716 118.303406 70.289879 176.904059 106.336864 23.921829 14.715143 23.674189 41.829687-0.582261 55.372122-58.479903 32.650631-117.357871 64.6136-176.579671 95.900164-24.829502 13.117762-46.732347-0.89744-46.967708-28.697599C401.588331 446.265112 401.803225 413.04143 401.806295 379.818771zM225.688135 68.168822c0 0.020466 0 0.040932 0 0.062422 15.666818 0 31.334659 0.097214 46.99943-0.033769 10.55131-0.088004 15.232936 4.849448 15.145955 15.44783-0.226151 27.716248-0.182149 55.43659-0.01842 83.154885 0.063445 10.718109-4.882194 14.9679-15.488763 14.858406-30.126134-0.311085-60.261479-0.3776-90.384543 0.024559-11.777231 0.157589-15.880689-4.770653-15.671934-16.250102 0.49221-27.107381 0.589424-54.240345-0.042979-81.341586-0.281409-12.060687 4.986571-16.161075 16.07614-15.97995C196.761316 68.346877 211.226772 68.168822 225.688135 68.168822zM794.364973 181.566498c-15.062044 0-30.133298-0.333598-45.182039 0.11154-11.026124 0.326435-17.002232-3.269463-16.854876-15.33936 0.337691-27.709085 0.237407-55.425334 0.060375-83.137489-0.061398-9.561773 3.792373-14.857383 13.70514-14.867616 31.325449-0.032746 62.650899-0.039909 93.976348-0.074701 9.69685-0.011256 13.972223 4.503571 13.855566 14.467503-0.324388 27.709085-0.410346 55.43045 0.037862 83.136465 0.191358 11.80793-4.852518 16.165168-16.22452 15.803941C823.294862 181.207317 808.824289 181.555242 794.364973 181.566498zM225.64311 572.838879c0.029676 0.448208 0.059352 0.896416 0.088004 1.345648 15.683191 0 31.385824 0.487094 47.042409-0.165776 11.035334-0.460488 15.171538 4.113691 15.074324 14.738679-0.24764 27.14115-0.165776 54.286394-0.022513 81.428567 0.052189 10.024308-3.085268 15.763009-14.56881 15.600303-30.756491-0.434905-61.526285-0.417509-92.2838-0.004093-11.097756 0.149403-15.066137-4.520967-14.648628-15.158235 0.471744-12.044314-0.185218-24.130583 0.1361-36.18513 0.51063-19.139919-5.703909-45.017286 4.200672-55.483662C180.337251 568.730305 206.639291 574.237739 225.64311 572.838879zM793.832853 574.213179c15.677051 0 31.448246-0.955768 46.972824 0.581238 4.671393 0.462534 12.20395 7.714705 12.378935 12.098549 1.131777 28.293393 0.435928 56.655348 0.676405 84.99172 0.084934 10.026354-4.318352 13.929244-14.19121 13.84431-30.748305-0.267083-61.504796-0.352017-92.25003 0.053212-10.971889 0.144286-15.150048-4.52199-15.059997-15.064091 0.23843-27.733645 0.260943-55.471382 0.050142-83.205027-0.077771-10.17678 4.523013-13.765515 14.394848-13.45443C762.467495 574.549847 778.155802 574.18862 793.832853 574.213179zM226.199789 320.726931c15.078417 0 30.176276 0.458441 45.230134-0.148379 11.546987-0.465604 16.572444 4.031826 16.442484 15.678074-0.302899 27.13808-0.26299 54.282301-0.034792 81.421404 0.089028 10.56359-4.004197 15.026228-15.047718 14.845103-30.752398-0.50449-61.524239-0.538259-92.275613 0.00307-11.520381 0.202615-14.381545-4.891404-14.22191-15.244192 0.407276-26.532283 0.538259-53.084009-0.054235-79.609129-0.273223-12.225439 3.683902-17.771759 16.543791-17.113773C197.219757 321.296913 211.725122 320.727954 226.199789 320.726931zM793.510512 432.342008c-15.675004 0-31.361265-0.367367-47.019897 0.130983-10.171664 0.323365-14.139022-4.02671-14.0766-13.853519 0.176009-27.730575 0.094144-55.463196-0.004093-83.193771-0.032746-9.231245 3.019777-14.81645 13.518898-14.734586 31.346939 0.24457 62.698994 0.237407 94.045933-0.00921 10.087753-0.079818 13.969153 4.459568 13.894452 14.213723-0.212848 27.730575-0.35918 55.468312 0.076748 83.192747 0.176009 11.178597-4.646833 14.776542-15.22475 14.396895C823.669392 431.944965 808.582789 432.348148 793.510512 432.342008z"  horiz-adv-x="1024" />

    
    <glyph glyph-name="zhongzhi" unicode="&#58973;" d="M1114.712426 894.951962c45.092589 3.150574 89.594445-0.787643 133.111747-12.011563 43.517302-11.22392 82.308743-25.204591 116.177412-41.942015 33.868669-16.737424 61.23928-34.459402 82.308743-53.165934 20.872552-18.903443 31.505739-34.656313 31.505739-47.65243 0-12.996117-8.073346-20.675641-24.220037-23.432393-16.146691-2.756752-36.2316-5.119683-60.451637-7.285702-24.220037-2.16602-50.803004-6.104237-79.748902-12.011563-28.945898-5.907326-56.513419-19.100354-82.308743-39.579085-17.131246-12.996117-33.671759-27.1737-49.227717-42.729658-15.555959-15.555959-31.111917-30.718095-46.864787-45.092589-15.555959-14.571404-31.70265-27.961343-48.440074-40.366728-16.737424-12.405385-34.656313-21.857106-53.953578-28.158254-9.648633-3.150574-21.463285-6.498059-35.443956-9.648633-13.980672-3.150574-28.748987-3.938217-44.304945-2.36293-15.555959 1.575287-31.70265 6.69497-48.440074 15.359048C887.477284 513.141788 871.527504 527.713192 856.562278 547.995011 846.913645 535.195805 838.446478 519.836757 831.554597 502.114779c-7.088791-17.721978-13.193028-36.822332-18.509622-57.301063-5.316593-20.47873-10.042454-41.745104-13.783761-63.799121C795.519909 358.960578 792.566246 338.284936 790.400226 318.987671c-2.16602-16.146691-3.741307-36.2316-4.922772-60.451637-0.984554-24.220037-1.378376-48.046252-0.787643-71.872467 0.590733-23.629304 1.969109-45.486411 3.938217-65.374408 2.16602-19.887998 5.316593-34.06558 9.648633-42.729658 5.316593-9.648633 8.073346-17.721978 8.073346-24.220037 0-5.316593-2.756752-10.436276-8.073346-15.359048-5.316593-4.922772-15.555959-7.285702-30.718095-7.285702-17.131246 0-28.748987 2.36293-34.656313 7.285702-5.907326 4.922772-8.860989 10.042454-8.860989 15.359048-0.984554 6.498059 0.984554 13.980672 6.498059 22.64475 5.316593 10.830098 8.860989 23.432393 10.436276 38.003798 1.575287 14.571404 2.16602 30.127363 1.575287 46.864787-0.590733 16.737424-1.378376 33.671759-2.36293 50.803004-0.984554 17.131246-1.575287 33.868669-1.575287 50.015361C721.678333 296.933654 704.940909 326.076463 688.794218 349.705767c-16.146691 23.629304-33.868669 46.274054-53.165934 67.737339-11.814652-25.795324-25.598413-45.092589-41.154372-58.088706-15.555959-12.996117-31.505739-21.857106-47.65243-26.582967-16.146691-4.922772-31.505739-7.088791-45.880232-6.498059-14.571404 0.590733-27.1737 1.969109-38.003798 3.938217-19.297265 3.150574-37.609976 9.451722-54.938132 18.509622-17.131246 9.0579-34.459402 19.297265-51.590648 30.718095-17.131246 11.22392-34.656313 23.432393-52.378291 36.2316-17.721978 12.996117-35.837778 24.220037-53.953578 33.868669-27.961343 16.146691-56.71033 24.810769-86.24696 25.795324-29.53663 0.984554-56.513419 0.196911-80.733456-2.36293-24.220037-2.756752-44.108035-3.741307-59.663993-3.150574-15.555959 0.590733-23.432393 7.876435-23.432393 21.857106 0 13.980672 8.860989 31.70265 26.582967 53.165934 17.721978 21.463285 41.351282 42.729658 70.887913 63.799121 29.53663 20.872552 64.192943 39.775995 103.968939 56.513419s81.71801 27.1737 125.826045 31.505739c67.737339 6.498059 123.856936 2.953663 168.555703-10.436276 44.698767-13.389939 79.551991-32.490293 104.756582-57.301063C626.176562 603.917698 641.929431 575.562533 648.42749 543.269151c6.498059-32.293382 5.316593-64.586765-3.150574-96.880147 34.459402-31.111917 68.328071-70.887913 101.606008-119.327986C752.199517 379.83313 765.589457 432.999064 787.249652 486.755731c8.664078 18.312711 16.737424 33.868669 24.220037 46.864787 7.482613 12.996117 16.737424 26.976789 27.370611 41.942015C821.512143 606.67445 812.651154 639.952387 812.257332 675.396343c-0.590733 35.443956 9.648633 68.918804 30.718095 100.030721 21.069463 31.111917 53.559756 57.891795 97.667791 79.945813C984.554342 877.426894 1042.643048 890.619922 1114.712426 894.951962L1114.712426 894.951962zM633.856086 451.311775C573.798271 502.902423 510.19606 536.180359 443.640187 551.342496c-66.752784 14.965226-135.474677 13.389939-206.559501-4.922772-2.16602 0-2.756752-0.196911-1.575287-0.787643 0.984554-0.590733 2.756752-0.787643 4.922772-0.787643 31.111917 3.150574 62.814567 4.52895 95.107949 3.938217 32.293382-0.590733 64.783676-5.316593 97.667791-14.571404 32.884115-9.0579 65.374408-22.64475 97.667791-40.366728 32.293382-17.721978 63.996032-41.745104 95.107949-71.872467L633.856086 451.311775 633.856086 451.311775zM1225.967067 757.705086c2.16602 0 3.741307 0.196911 4.922772 0.787643 0.984554 0.590733 0 0.787643-3.150574 0.787643-78.567437 7.482613-149.455349-4.52895-212.860649-36.2316-63.4053-31.70265-119.327986-78.173615-167.76806-139.609806l16.146691-27.370611c28.945898 39.775995 58.87635 72.66011 89.594445 98.455434 30.718095 25.795324 61.830013 46.274054 93.532663 61.23928 31.70265 14.965226 62.617656 25.598413 92.745019 31.505739S1198.005724 756.720532 1225.967067 757.705086L1225.967067 757.705086zM383.976193-66.563809c-8.664078 7.482613-5.907326 16.343602 8.073346 26.582967 13.980672 10.239365 34.459402 20.675641 61.23928 31.505739 26.976789 10.830098 57.301063 21.857106 91.169732 33.081026 33.868669 11.22392 66.358963 21.266374 97.667791 29.930452 13.980672 4.332039 25.00768 3.938217 33.081026-0.787643 8.073346-4.922772 15.555959-11.027009 22.64475-18.509622 7.088791-7.482613 15.555959-14.768315 25.795324-21.857106 10.239365-7.088791 25.00768-10.436276 44.304945-10.436276 19.297265 0 34.06558 3.544396 44.304945 10.436276 10.239365 6.89188 19.100354 13.980672 26.582967 20.872552 7.482613 7.088791 14.965226 12.996117 22.64475 17.721978 7.482613 4.922772 18.312711 5.710415 32.293382 2.36293 31.111917-8.664078 63.996032-18.903443 98.455434-30.718095 34.459402-11.814652 65.374408-23.432393 92.745019-34.656313 27.370611-11.22392 48.046252-22.054017 62.026924-32.293382 13.980672-10.239365 15.555959-17.918889 4.922772-23.432393-25.795324-13.980672-60.451637-25.598413-103.968939-34.656313-43.517302-9.0579-90.77591-15.94978-141.972736-20.084909-50.999915-4.332039-103.772028-6.498059-158.119427-6.498059-54.3474 0-105.741136 2.36293-153.984299 7.285702-48.440074 4.922772-91.366643 11.814652-128.976619 20.872552C426.902763-90.390024 400.122885-79.363015 383.976193-66.563809L383.976193-66.563809z"  horiz-adv-x="1478" />

    
    <glyph glyph-name="baocun" unicode="&#58884;" d="M998.672 597.328 998.672 597.328l-558.56-539.328 0 0c-13.168-12.752-31.376-20.592-51.536-20.592-20.16 0-38.336 7.84-51.536 20.592l0 0L21.328 362.832l0 0C8.16 375.568 0 393.12 0 412.544c0 38.88 32.592 70.352 72.864 70.352 20.112 0 38.32-7.872 51.536-20.608l0 0 264.176-255.104L895.664 696.8l0 0c13.152 12.736 31.376 20.608 51.536 20.608 40.224 0 72.864-31.472 72.864-70.336C1020.048 627.68 1011.888 610.032 998.672 597.328z"  horiz-adv-x="1024" />

    
    <glyph glyph-name="tupian" unicode="&#59014;" d="M923.159826 763.594411 100.838128 763.594411c-52.43421 0-94.903463-42.468231-94.903463-94.863555l0-632.555703c0-52.395324 42.469254-94.903463 94.903463-94.903463l822.321698 0c52.394301 0 94.901417 42.508139 94.901417 94.903463l0.002047 632.555703C1018.022357 721.125157 975.517287 763.594411 923.159826 763.594411L923.159826 763.594411zM938.962743 132.985036l-198.523449 264.698614c0 0-11.524474 21.410636-52.045353 21.410636-45.973054 0-59.791781-20.748556-59.791781-20.748556L454.717877 129.948887c0 0-9.458419-17.984606-32.659841-17.984606-24.290219 0-35.890418 17.984606-35.890418 17.984606l-91.437525 104.517425c0 0-23.433712 31.023574-53.874001 31.023574-30.324656 0-55.509245-34.331923-55.509245-34.331923L84.995301 106.125295 84.995301 651.757277c0 17.439184 14.169721 31.647791 31.646767 31.647791l790.712793 0c17.480116 0 31.647791-14.207583 31.647791-31.647791l0-518.77224L938.962743 132.985036 938.962743 132.985036zM464.449519 478.924953c0-61.892629-50.136887-112.030539-111.99063-112.030539-61.853743 0-112.030539 50.175773-112.030539 112.030539 0 61.814858 50.176796 111.991654 112.030539 111.991654C414.312632 590.876698 464.449519 540.738787 464.449519 478.924953L464.449519 478.924953z"  horiz-adv-x="1024" />

    
    <glyph glyph-name="zanting" unicode="&#59117;" d="M73.142857-128 365.714286-128 365.714286 896 73.142857 896 73.142857-128 73.142857-128ZM658.285714 896 658.285714-128 950.857143-128 950.857143 896 658.285714 896 658.285714 896Z"  horiz-adv-x="1024" />

    
    <glyph glyph-name="shipin1" unicode="&#58889;" d="M1564.672 29.9008 1343.488 162.0992C1292.1856 192.7168 1244.4672 190.3616 1225.5232 277.1968L1228.8 486.4C1228.8 529.1008 1302.528 618.7008 1343.488 644.3008L1564.672 776.4992C1605.632 802.0992 1638.4 780.8 1638.4 738.0992L1638.4 68.3008C1638.4 21.2992 1605.632 4.3008 1564.672 29.9008L1564.672 29.9008ZM991.232-128 155.648-128C69.632-128 0-55.5008 0 34.0992L0 733.9008C0 823.5008 69.632 896 155.648 896L1024 896C1110.016 896 1126.4 780.8 1126.4 691.2L1126.4 76.8C1126.4-12.8 1077.248-128 991.232-128L991.232-128ZM421.888 674.0992C368.64 665.6 323.584 618.7008 311.296 558.8992 290.816 456.4992 376.832 362.7008 479.232 384 532.48 396.8 577.536 443.6992 589.824 503.5008 610.304 610.0992 524.288 699.6992 421.888 674.0992L421.888 674.0992Z"  horiz-adv-x="1639" />

    
    <glyph glyph-name="up" unicode="&#58910;" d="M880.102 185.173c18.020-17.82 47.144-17.82 65.097 0 17.954 17.753 17.954 46.611 0 64.429l-401.157 395.954c-18.020 17.82-47.077 17.82-65.097 0l-401.157-395.953c-17.954-17.82-18.020-46.611 0-64.429s47.21-17.82 65.097-0.067l368.641 350.142 368.576-350.076z"  horiz-adv-x="1024" />

    
    <glyph glyph-name="dizhi" unicode="&#58881;" d="M1043.477 33.452c0-105.667-262.145-160.946-521.098-160.946-258.943 0-521.080 55.279-521.080 160.946 0 93.762 201.928 132.846 288.749 145.295 12.886 1.802 24.876-7.118 26.722-20.023 1.856-12.904-7.113-24.868-20.026-26.721-180.823-25.931-248.215-74.211-248.215-98.551 0-46.375 184.596-113.717 473.851-113.717 289.274 0 473.87 67.342 473.87 113.717 0 24.533-68.039 73.074-250.622 98.889-12.915 1.828-21.909 13.781-20.081 26.688 1.834 12.915 13.825 21.816 26.685 20.081 87.574-12.391 291.246-51.37 291.246-145.657v0zM422.47 594.422c0 55.097 44.81 99.916 99.898 99.916 55.108 0 99.945-44.82 99.945-99.916 0-55.095-44.839-99.915-99.945-99.915-55.087 0.001-99.898 44.821-99.898 99.915v0zM669.544 594.422c0 81.14-66.020 147.146-147.174 147.146-81.127 0-147.126-66.006-147.126-147.146 0-81.136 65.999-147.147 147.126-147.147 81.155 0.001 147.174 66.013 147.174 147.147v0zM522.378 848.108c145.32 0 263.538-118.217 263.538-263.519 0-201.338-204.106-427.544-263.732-489.319-59.791 60.658-263.316 282.356-263.316 489.319 0 145.302 118.209 263.519 263.509 263.519v0zM506.254 44.665l16.327-15.248 16.134 15.449c12.019 11.514 294.43 284.919 294.43 539.723 0 171.349-139.409 310.748-310.768 310.748-171.341 0-310.737-139.399-310.737-310.748 0.001-261.676 282.586-528.681 294.615-539.925v0z"  horiz-adv-x="1061" />

    
    <glyph glyph-name="arrow-bottom" unicode="&#58885;" d="M532.207 177.866v0c3.079 1.777 6.39 3.079 9.112 5.802 0.477 0.594 0.827 1.064 1.303 1.539 0.594 0.709 1.539 0.946 2.128 1.54l319.434 331.383c8.519 8.757 12.781 20.121 12.781 31.483 0 11.836-4.733 23.79-13.964 32.666-18.107 17.398-46.871 16.924-64.265-1.183l-288.071-298.956-283.922 300.139c-17.28 18.225-46.040 19.057-64.265 1.777-18.226-17.281-19.057-46.040-1.777-64.265l316.355-334.462c13.844-14.676 35.149-17.399 52.429-9.113 0.945 0.35 1.777 1.182 2.722 1.653v0zM532.207 177.866z"  horiz-adv-x="1024" />

    
    <glyph glyph-name="nongchang" unicode="&#58985;" d="M505.22162 535.452387c-11.744485-1.443885-23.200398 5.583159-27.003004 17.231453-2.503007 7.653307-5.823636 15.739473-9.626242 23.921829a319.506894 319.506894 0 0 1-13.766538 26.088169c-8.616238 14.487969-40.431851 17.183358-66.568115 19.349696-9.337669 0.77055-18.050098 1.540076-27.003004 2.983961-24.596188 3.994987-45.197388 13.332656-61.417814 28.206412-16.028045 14.680351-27.195386 34.174334-33.163308 58.626236h-0.048095c-6.257517 25.461905-5.486968 43.99398-4.573155 65.74947 0.240477 5.486968 0.480954 11.215436 0.577144 15.931854 0.144286 4.427846-0.240477 8.520047-1.155312 12.32163a33.627888 33.627888 0 0 1-4.043083 9.819646h-0.096191c-0.432859 0.62524-1.299599 1.780553-2.310625 3.080152-5.77554 7.460925-12.56313 16.316617-12.995989 28.254507-1.154289 35.908838 31.239492 36.678364 47.700395 37.064151l1.299599 0.048095h0.192381c14.968923 0.384763 30.853705-0.480954 46.207392-2.358721 15.931854-1.924839 31.911804-5.006014 46.448891-8.90481 42.212404-11.311627 87.650269-32.441876 120.188337-65.364707 21.852704-22.141276 37.832653-49.384757 43.319621-82.163301 20.360723 30.56411 48.421826 51.743478 80.430844 65.653279 54.05308 23.48897 119.129214 25.173332 176.022992 16.124236v-0.048096c11.888771-1.876744 24.932856-4.669346 37.592177-7.941879 12.995989-3.369747 25.607214-7.220449 36.388768-11.167341a487.23906 487.23906 0 0 0 19.301602-7.075139c6.497994-2.551102 12.995989-5.342682 19.445887-8.422833l1.299599-0.577145c15.595186-7.220449 49.14428-22.814612 33.645285-56.652278-5.246491-11.407817-16.84669-17.857716-26.376741-23.152302-2.214435-1.203408-4.235464-2.310625-4.669346-2.599198l0.048095-0.048095a47.6523 47.6523 0 0 1-11.455912-11.167341c-3.369747-4.475941-6.113231-9.771551-8.471952-15.739473-2.454912-6.305613-4.909823-12.947893-7.31664-19.397792-9.385764-25.461905-17.375739-47.122227-36.773531-73.210395-18.531052-24.836665-40.33566-41.250496-65.268516-49.577139-24.836665-8.326643-51.935859-8.374738-81.248466-0.626263-10.108219 2.647293-21.274536 6.54609-33.115212 10.685363-33.837666 11.744485-74.750471 25.991977-95.399767 10.92584v-0.096191c-1.973958-1.39579-4.765537-3.080152-8.134261-5.102204-6.257517-3.706415-19.445888-6.353708-18.482956-8.422834 25.65531-54.82363 163.219385-69.071122 275.17727-80.623225 96.218412-9.963932 176.503946-18.290575 183.435822-62.380746 7.268544-46.255487-43.319621-189.259458-109.983927-308.292482-51.839669-92.608188-114.701368-173.135222-170.728406-188.682313-59.251475-16.461927-218.09111 20.745487-369.614106 71.910797-164.905794 55.691393-324.514955 130.249483-342.661243 172.895768-1.347694 3.225461-2.503007 6.161327-3.417843 8.760525-14.391778 41.923832-8.374738 92.560092 28.398794 143.581116 33.885761 47.026036 94.822622 94.870718 191.521988 136.072095a981.713918 981.713918 0 0 0 62.669318 24.018019c13.18837 4.524037 27.532053-2.503007 32.057113-15.691377 4.524037-13.18837-2.503007-27.532053-15.691377-32.057113-21.612227-7.460925-41.346687-15.018042-59.299571-22.670326-87.505983-37.254485-141.462872-78.93784-170.439834-119.081119-26.040073-36.148291-30.853705-70.418816-21.466917-97.806583 0.77055-2.214435 1.443885-3.994987 2.070148-5.390777 12.515035-29.40982 158.647253-92.992951 312.239374-144.880715 143.773498-48.518017 291.205315-84.714404 340.205309-71.14127 41.250496 11.455913 93.955882 82.307587 140.163273 164.807557 62.140269 110.946858 110.080118 238.836597 104.256482 275.947819-0.914836 5.679349-63.632249 12.177344-138.815579 19.926842-124.713396 12.947893-277.920754 28.783557-315.657216 109.502973-5.151323 10.974959-5.969968 20.6012-4.044106 29.024033z m-112.824625 136.938836c32.730449-2.743484 71.622224-6.01704 95.736435-30.80561 2.695389 8.471952 5.1503 17.183358 7.123234 26.136264 2.310625 10.589173 3.802606 21.322631 3.802606 32.009017h0.096191c0 29.602202-12.370749 53.572126-30.997992 72.488965C442.792778 797.875169 405.777747 814.818049 370.833887 824.155718c-12.081153 3.225461-25.703405 5.823636-39.565111 7.509021-9.097192 1.107217-18.050098 1.828648-26.521027 2.118244a81.049944 81.049944 0 0 0 5.679349-16.07614c1.972934-8.182356 2.743484-16.558118 2.551103-25.125237-0.144286-6.834662-0.384763-11.984962-0.577145-16.942881-0.77055-17.905812-1.443885-33.067116 3.176343-51.743478v-0.096191c3.562129-14.536065 9.674337-25.65531 18.194384-33.500998 8.760524-7.989975 20.649296-13.140275 35.473932-15.547091h0.096191c5.631254-0.914836 14.054087-1.63729 23.055089-2.359744z m166.396751-84.810595l-0.192382-1.155312c40.960901 24.163329 92.127234 6.353708 134.820592-8.471952 10.685363-3.75451 20.745487-7.220449 29.361725-9.530051 19.782555-5.198395 37.303604-5.438872 52.464908-0.336668 15.017018 5.006014 28.639271 15.547091 40.816615 31.815613 14.920828 20.071128 21.804608 38.699394 29.890774 60.59917 2.310625 6.257517 4.717442 12.803607 7.701402 20.408819 3.850701 9.819646 8.760524 18.964934 14.920828 27.339672 5.871731 7.941879 12.851703 14.968923 21.178345 21.082154-3.610224 1.588171-7.268544 3.128247-11.022031 4.573155-5.246491 2.070148-11.119245 4.187369-17.279548 6.305613l-0.480954 0.192382c-9.963932 3.706415-21.13025 7.123234-32.153304 9.963932-11.407817 2.983961-22.766516 5.438872-32.778545 7.027044h-0.09619c-48.854685 7.749498-103.919814 6.642281-148.202367-12.56313-32.970926-14.295588-60.118216-39.276539-73.836659-79.227436h-0.048095c-8.134261-23.77652-11.744485-51.934836-15.065114-78.023005z m346.94378 148.58713c2.695389 5.823636 0.722454 3.225461-2.022053-0.818645 0.674359-0.62524 1.203408-1.010003 2.022053 0.818645z"  horiz-adv-x="1024" />

    
    <glyph glyph-name="yinliang" unicode="&#59932;" d="M64 537.5936v-307.1872h198.4064l249.5936-256V793.5936l-249.5936-256H64zM736 384c0 89.5936-51.1872 166.4064-121.5936 204.8128v-409.6256C684.8128 217.5936 736 294.4064 736 384zM614.4064 832v-102.4064C755.1872 684.8128 864 550.4064 864 384c0-160-102.4064-300.8128-249.5936-345.5936V-64C812.8128-19.1872 960 166.4064 960 384s-147.1872 403.1872-345.5936 448z"  horiz-adv-x="1024" />

    
    <glyph glyph-name="jieshu" unicode="&#58945;" d="M513.3-128C231.2-128 2.6 100.7 2.6 382.7 2.6 664.8 231.2 893.4 513.3 893.4S1024 664.7 1024 382.7 795.3-128 513.3-128z m0 926.6c-229.7 0-415.9-186.2-415.9-415.9s186.2-415.9 415.9-415.9S929.2 153 929.2 382.7 743 798.6 513.3 798.6zM360.1 535.9h306.4v-306.4H360.1V535.9z"  horiz-adv-x="1024" />

    
    <glyph glyph-name="tupian1" unicode="&#58905;" d="M1014.6816 15.377067V752.622933c0 134.050133-115.498667 134.050133-134.0416 134.050134H143.377067c-18.500267 0-134.033067 0-134.033067-134.050134v-737.245866c0-134.0416 134.033067-134.0416 134.033067-134.0416H880.64c38.656 0 65.8944 11.281067 85.469867 27.195733 1.2544 0.938667 2.517333 1.877333 3.703466 2.875733a110.813867 110.813867 0 0 1 12.2112 12.4672c1.041067 1.2544 1.902933 2.5856 2.875734 3.9168 29.568 38.690133 29.781333 87.586133 29.781333 87.586134zM146.6112 813.994667h725.12c18.261333 0 65.928533 0 65.928533-65.92v-725.077334s-0.1792-38.0416-29.243733-56.2944c-48.3584 50.773333-181.137067 189.986133-214.698667 223.5392-24.96 24.968533-50.756267 30.609067-66.423466 29.781334-33.7664-0.469333-55.611733-21.666133-57.156267-23.492267l-69.4784-60.535467c-14.08-13.371733-25.796267-1.6896-31.4368 3.985067-42.461867 42.496-124.765867 115.933867-135.082667 125.098667-6.826667 6.826667-30.890667 28.202667-65.629866 29.021866-18.176 0.904533-45.696-4.846933-73.361067-32.512-25.762133-25.7536-75.153067-71.313067-114.4576-107.127466V748.066133c0.034133 65.92 47.701333 65.92 65.92 65.92z m532.923733-472.430934c-93.806933 0-170.180267 76.458667-170.180266 170.402134 0 93.952 76.3392 170.3936 170.180266 170.3936 93.832533 0 170.180267-76.450133 170.180267-170.3936 0-93.952-76.347733-170.402133-170.180267-170.402134z m0 268.945067c-54.212267 0-98.3296-44.1856-98.3296-98.542933s44.117333-98.551467 98.3296-98.551467 98.3296 44.194133 98.3296 98.551467c0 54.357333-44.117333 98.542933-98.3296 98.542933z"  horiz-adv-x="1024" />

    
    <glyph glyph-name="tuichu" unicode="&#58901;" d="M511.771963-127.291077c-63.724308 0-125.558154 12.445538-183.768615 37.100308a469.464615 469.464615 0 0 0-150.134154 101.139692 471.118769 471.118769 0 0 0 59.392 717.351385 37.021538 37.021538 0 0 0 43.008-59.864616 403.692308 403.692308 0 0 1-121.304616-139.027692A391.798154 391.798154 0 0 1 113.435963 344.772923c0-106.338462 41.432615-206.375385 116.657231-281.6a395.736615 395.736615 0 0 1 281.678769-116.736c106.338462 0 206.454154 41.432615 281.757539 116.736a395.421538 395.421538 0 0 1 116.65723 281.6 391.483077 391.483077 0 0 1-45.528615 184.635077 403.298462 403.298462 0 0 1-121.304615 138.870154 36.864 36.864 0 0 0 43.008 59.943384 471.04 471.04 0 0 0 59.392-717.430153 471.04 471.04 0 0 0-333.981539-138.161231z m11.106462 512.236308a36.864 36.864 0 0 0-36.94277 36.864V858.978462a37.021538 37.021538 0 0 0 73.964308 0v-437.169231c0-20.48-16.541538-36.864-37.021538-36.864z"  horiz-adv-x="1024" />

    
    <glyph glyph-name="zuowu" unicode="&#59233;" d="M799.936 545.696c-0.928 17.12-16.192 30.016-32.384 30.304-113.472-1.504-198.976-17.824-255.264-48.16-84.928 46.816-212.672 50.496-257.824 47.136a32 32 0 0 1-29.504-29.504c-4.032-53.664 1.696-223.936 78.112-300.416 37.056-37.024 81.248-52.928 124.128-52.928 29.984 0 59.264 7.808 85.056 21.536 24.96-13.088 54.208-21.312 84.832-21.312 41.952 0 86.048 15.072 123.744 52.704 89.152 89.216 79.168 298.528 79.104 300.64z m-451.616-255.36c-44.576 44.608-60.064 153.184-60.448 221.728 68.544-0.384 177.152-15.872 221.728-60.448 52.352-52.384 39.072-122.176 0-161.28-4.224-4.224-8.96-7.968-13.824-11.552-1.248-0.704-2.304-1.664-3.456-2.56-40.256-27.232-98.656-31.232-144 14.112z m327.264 0c-33.248-33.184-73.152-39.136-107.488-30.208 47.392 59.68 58.176 151.552-0.64 222.784 34.176 12.992 86.912 24.864 168.928 28.256-1.344-67.744-15.744-175.744-60.8-220.832z"  horiz-adv-x="1024" />

    
    <glyph glyph-name="huanjingjiance" unicode="&#58961;" d="M883.756 423.963c3.758-40.489-196.103-92.515-246.917-208.046-39.226-89.016 10.4-165.161 61.713-202.056-100.168-144.367-103.933-113.725-111.193-122.313l55.781-11.585s95.867 160.198 105.595 176.954c-0.355 0.352-25.815 23.395-47.107 50.231-5.315 6.775-10.4 13.687-14.715 20.565-4.26 6.84-7.936 13.51-10.155 19.616-1.212 3.028-2.287 5.769-2.679 8.4-0.474 2.58-1.266 4.758-1.12 6.697 0.031 3.697 0.010 5.833 0.010 5.833l0.744-5.762c-0.014-1.86 1.085-3.912 1.823-6.38 0.662-2.447 2.045-4.987 3.529-7.735 2.854-5.605 7.124-11.595 12.052-17.708 4.881-6.124 10.66-12.261 16.551-18.2 11.936-11.824 24.818-22.624 34.676-30.457 44.163-35.356 96.441-62.715 153.428-78.868-26.084 262.408 57.115 489.347 97.347 730.821l-206.74-609.041s-19.698 17.814-36.113 38.455c-4.041 5.253-7.994 10.513-11.261 15.783-3.304 5.28-6.1 10.356-7.793 15.015-0.918 2.335-1.707 4.434-2.038 6.448-0.382 1.952-0.983 3.618-0.86 5.1 0.010 2.854 0 4.499 0 4.499s0.205-1.635 0.546-4.482c-0.017-1.42 0.85-2.976 1.389-4.847 0.492-1.888 1.553-3.796 2.693-5.967 2.178-4.267 5.468-8.841 9.202-13.507 3.768-4.683 8.178-9.376 12.677-13.947 9.161-9.032 19.009-17.285 26.552-23.299 30.598-24.569 66.84-43.568 106.359-54.766-9.876 208.291 52.064 396.503 79.516 595.72l-144.485-486.091s-15.79 14.251-28.911 30.792c-3.256 4.134-6.366 8.421-8.987 12.599-2.628 4.178-4.895 8.298-6.229 11.991-0.724 1.86-1.379 3.543-1.618 5.178-0.314 1.58-0.806 2.908-0.686 4.093 0.020 2.273-0.014 3.594-0.014 3.594s0.154-1.352 0.447-3.574c-0.014-1.106 0.659-2.4 1.113-3.86 0.44-1.498 1.273-3.058 2.181-4.751 1.717-3.465 4.379-7.107 7.38-10.844 2.987-3.707 6.479-7.479 10.127-11.165 7.315-7.229 15.186-13.817 21.214-18.603 2.83-2.246 5.7-4.441 8.612-6.571 0.058 0.223 0.168 0.415 0.315 0.57s7.048 15.394 10.304 22.845c33.331 75.619 20.825 43.66-5.649-21.74 8.316 0.422 15.891 1.136 23.368 2.155-5.653-0.868 5.696 0.368 16.803 2.525 5.53 1.147 11.080 2.406 16.125 4.014 5.048 1.615 9.701 3.342 13.455 5.396 1.843 1.007 3.577 1.922 4.884 3.069 1.321 1.096 2.714 1.847 3.42 2.867 1.649 1.898 2.56 2.973 2.56 2.973s-0.782-1.167-2.219-3.28c-0.594-1.167-1.867-2.079-3.116-3.345-1.198-1.341-2.864-2.488-4.666-3.734-3.546-2.574-8.086-4.949-13.076-7.182-4.98-2.287-10.455-4.236-16.005-6.103-22.214-7.1-45.394-10.513-45.394-10.513l-0.119 1.307c-653.321-1592.018-1476.004-2965.699-2471.301-4193.776 2456.412 4136.424 2464.267 4137.156 2472.025 4138.198-4.1-0.687 10.513 0.873 24.849 3.631 7.178 1.485 14.343 3.14 20.862 5.199 6.502 2.062 12.517 4.294 17.282 6.967 2.42 1.27 4.659 2.458 6.335 3.925 1.727 1.427 3.502 2.386 4.403 3.707 2.099 2.464 3.342 3.833 3.342 3.833l-2.86-4.239c-0.795-1.495-2.413-2.645-4.024-4.321-1.584-1.724-3.676-3.191-6.011-4.813-4.54-3.342-10.455-6.352-16.865-9.277-6.444-2.912-13.466-5.424-20.63-7.834-24.518-7.844-49.814-12.158-56.637-13.24-7.68-18.855-18.705-38.014-26.242-56.617 2.987 0.157 9.574 0.358 13.541 0.679 12.551 1.014 29.28 2.826 45.759 6.035 8.189 1.679 16.411 3.574 23.873 5.919 7.462 2.352 14.367 4.939 19.842 8.015 2.775 1.481 5.338 2.85 7.264 4.526 1.949 1.539 3.997 2.69 5.048 4.233 2.447 2.778 3.826 4.4 3.826 4.4s-1.208-1.734-3.297-4.847c-0.901-1.683-2.789-3.048-4.622-4.929-1.778-1.983-4.195-3.663-6.874-5.519-5.246-3.816-12.001-7.335-19.357-10.622-7.4-3.379-15.514-6.246-23.682-8.967-27.812-8.926-60.6-12.179-68.806-13.541-8.673-21.484-23.965-43.308-30.826-60.655 66.352-24.433 180.838-30.249 227.874 76.677 50.804 115.596-82.429 391.956-78.718 351.471zM592.302 417.758l-124.593 320.283-136.018-255.918-75.858 78.049-128.481-79.988 36.27-20.89 82.258 51.248 99.335-102.257 114.964 216.327 127.113-327.161 108.401 228.308 44.206-93.996 48.418 8.103-92.297 196.489-103.718-218.597M592.302 417.758zM69.943 208.111v611.089h885.46v-442.307c26.72-5.666 50.196-16.196 58.945-21.129v482.215c0 24.856-18.459 44.933-41.376 44.933h-920.757c-22.914 0-41.373-20.081-41.373-44.933v-663.624s0-35.451 67.011-29.679l512.191-0.969-31.522 64.461-488.578-0.058z"  horiz-adv-x="1024" />

    
    <glyph glyph-name="piliang1" unicode="&#58915;" d="M488.986 835.757c-6.307 5.402-14.118 7.95-21.979 7.198-6.625-0.484-16.121-3.726-27.068-16.516l-231.39-270.248L59.633 685.278c-22.157 19.21-42.529 7.538-50.2-1.312-9.853-11.36-14.02-31.02 6.641-48.932L182.273 490.96c3.266-2.831 6.554-4.767 9.825-6.325 11.443-9.702 31.03-13.647 48.748 7.048l250.523 292.589c17.783 20.772 7.976 42.612-2.383 51.485zM411.22 346.513H59.559c-31.927 0-57.811-25.88-57.811-57.804V-62.95c0-31.926 25.884-57.81 57.81-57.81h351.657c31.926 0 57.81 25.879 57.81 57.81V288.71c0 31.925-25.879 57.804-57.805 57.804z m5.887-370.393c0-24.834-20.134-44.96-44.96-44.96H98.633c-24.834 0-44.96 20.128-44.96 44.96V249.634c0 24.833 20.132 44.96 44.96 44.96h273.512c24.832 0 44.96-20.132 44.96-44.96V-23.88zM965.673 892.12H614.02c-31.927 0-57.806-25.884-57.806-57.81v-351.658c0-31.925 25.88-57.81 57.806-57.81h351.656c31.926 0 57.81 25.885 57.81 57.81V834.31c0 31.927-25.88 57.811-57.812 57.811z m5.892-370.392c0-24.833-20.125-44.96-44.96-44.96H653.092c-24.832 0-44.96 20.132-44.96 44.96V795.237c0 24.832 20.133 44.96 44.96 44.96h273.514c24.834 0 44.96-20.133 44.96-44.96v-273.508z m-5.892-178.032H614.02c-31.927 0-57.806-25.878-57.806-57.81v-351.656c0-31.926 25.88-57.804 57.806-57.804h351.656c31.926 0 57.81 25.88 57.81 57.804V285.887c0 31.932-25.88 57.81-57.812 57.81z m5.892-370.39c0-24.834-20.125-44.961-44.96-44.961H653.092c-24.832 0-44.96 20.132-44.96 44.96V246.82c0 24.832 20.133 44.959 44.96 44.959h273.514c24.834 0 44.96-20.132 44.96-44.96v-273.512z"  horiz-adv-x="1024" />

    
    <glyph glyph-name="lajitong-copy" unicode="&#59185;" d="M842.88 569.344c-20.16 0-37.952-16.384-37.952-36.608v-547.52c-0.215-19.983-16.465-36.099-36.478-36.099-0.158 0-0.316 0.001-0.474 0.003l-511.912-0c-0.135-0.002-0.293-0.003-0.452-0.003-20.052 0-36.345 16.093-36.667 36.069l-0 549.15c0 20.224-14.72 36.608-34.944 36.608-20.224 0-35.008-16.384-35.008-36.608v-549.056c0-60.48 46.592-113.088 107.072-113.088h512.064c60.48 0 112.896 52.672 112.896 113.088v547.584c-0.128 20.096-17.92 36.48-38.080 36.48zM435.968 131.456v402.304c0 20.16-14.784 36.544-35.008 36.544s-35.008-16.256-35.008-36.544v-402.304c0-20.16 14.784-36.608 35.008-36.608s35.008 16.448 35.008 36.608zM657.92 131.456v402.304c0 20.16-17.792 36.544-37.952 36.544-20.224 0-38.016-16.256-38.016-36.544v-402.304c0-20.16 17.792-36.608 38.016-36.608 20.16 0 37.952 16.448 37.952 36.608zM987.328 715.008h-182.4v74.752c0 60.48-49.28 106.304-109.312 106.304h-366.528c-60.416 0-110.080-45.824-110.080-106.24v-74.752h-182.4c-20.288 0-36.608-14.784-36.608-35.008 0-20.16 16.32-34.944 36.608-34.944h950.784c20.224 0 36.608 14.72 36.608 34.944 0 20.224-16.384 35.008-36.672 35.008zM728.96 715.008h-439.040v74.752c0 20.224 19.072 36.288 39.168 36.288h366.528c20.032 0 33.28-15.744 33.28-36.288v-74.688z"  horiz-adv-x="1024" />

    
    <glyph glyph-name="ft-photo" unicode="&#59160;" d="M512 521.6c-108.8 0-195.2-86.4-195.2-195.2 0-108.8 86.4-195.2 195.2-195.2 108.8 0 195.2 86.4 195.2 195.2 0 108.8-86.4 195.2-195.2 195.2zM944 640h-204.8V732.8c0 12.8-9.6 19.2-19.2 19.2H307.2c-12.8 0-19.2-9.6-19.2-19.2V640H80C35.2 640 0 604.8 0 560V96c0-44.8 35.2-80 80-80h860.8c44.8 0 80 35.2 80 80V560c3.2 44.8-32 80-76.8 80zM92.8 505.6c-22.4 0-41.6 19.2-41.6 41.6s19.2 41.6 41.6 41.6c22.4 0 41.6-19.2 41.6-41.6s-19.2-41.6-41.6-41.6zM512 83.2c-134.4 0-243.2 108.8-243.2 243.2 0 134.4 108.8 243.2 243.2 243.2s243.2-108.8 243.2-243.2c0-134.4-108.8-243.2-243.2-243.2z"  horiz-adv-x="1024" />

    
    <glyph glyph-name="shipin" unicode="&#58924;" d="M512.099 832.06c-247.029 0-448-200.977-448-448s200.971-448 448-448 448 200.977 448 448-200.971 448-448 448z m116.425-562.143c0-24.741-20.059-44.8-44.8-44.8H251.273c-24.741 0-44.8 20.059-44.8 44.8V489.52c0 24.741 20.059 44.8 44.8 44.8h332.451c24.741 0 44.8-20.059 44.8-44.8v-219.603z m144.404-25.532l-116.404 65.687V458.048l116.404 65.687v-279.35zM288.678 452.109m-37.406 0a37.406 37.406 0 1 1 74.812 0 37.406 37.406 0 1 1-74.812 0Z"  horiz-adv-x="1024" />

    
    <glyph glyph-name="kongzhi" unicode="&#58921;" d="M883.2 428.8h-89.6V448c0 25.6-19.2 44.8-44.8 44.8-25.6 0-44.8-19.2-44.8-44.8v-19.2H140.8c-25.6 0-44.8-19.2-44.8-44.8 0-25.6 19.2-44.8 44.8-44.8h569.6V320c0-25.6 19.2-44.8 44.8-44.8 25.6 0 44.8 19.2 44.8 44.8v19.2h89.6c25.6 0 44.8 19.2 44.8 44.8-6.4 25.6-25.6 44.8-51.2 44.8zM883.2 121.6H345.6v19.2c0 25.6-19.2 44.8-44.8 44.8s-44.8-19.2-44.8-44.8v-19.2H140.8c-25.6 0-44.8-19.2-44.8-44.8 0-25.6 19.2-44.8 44.8-44.8h121.6v-19.2c0-25.6 19.2-44.8 44.8-44.8s44.8 19.2 44.8 44.8v19.2h537.6c25.6 0 44.8 19.2 44.8 44.8-6.4 25.6-25.6 44.8-51.2 44.8zM140.8 646.4h121.6v-19.2c0-25.6 19.2-44.8 44.8-44.8s44.8 19.2 44.8 44.8v19.2h537.6c25.6 0 44.8 19.2 44.8 44.8 0 25.6-19.2 44.8-44.8 44.8H345.6v19.2c0 25.6-19.2 44.8-44.8 44.8s-38.4-19.2-38.4-44.8v-19.2H140.8c-25.6 0-44.8-19.2-44.8-44.8 0-25.6 19.2-44.8 44.8-44.8z"  horiz-adv-x="1024" />

    
    <glyph glyph-name="f11" unicode="&#58890;" d="M370.02499547102286 512.1830338276819l284.652757616345 0c15.753162352176458 0 28.49454516839243-12.642404146020084 28.49454516839243-28.394152517193746 0-7.325835575498272-2.809580252560329-13.94750861160296-7.325835575498272-18.964313209531518l-140.7702927145929-187.82899446872491c-9.432667269667817-12.440204862619918-27.190854683812347-15.05041379378568-39.73428015963655-5.619160505120658-2.208638326371029 1.6062824191789298-4.113270737140412 3.5123288109511113-5.619160505120658 5.619160505120658L347.3489821291456 466.8310071439276c-9.330860637466337 12.441618843622715-6.82104435749926 30.30019890896592 5.71955315631934 39.63247352743506C358.18714651559515 510.37738008710846 364.10607099330895 512.1830338276819 370.02499547102286 512.1830338276819L370.02499547102286 512.1830338276819z"  horiz-adv-x="1024" />

    
    <glyph glyph-name="yinliangjingyin" unicode="&#58887;" d="M2015.686664 582.377537l-79.85106 79.694796L1736.286085 462.679078 1536.736565 662.072333l-79.85106-79.694796L1656.435024 382.671753 1456.885505 183.122234l79.85106-79.85106L1736.286085 302.976957l199.549519-199.705783 79.85106 79.85106L1816.137145 382.671753 2015.686664 582.377537zM818.07702 575.9707v-383.9414H1066.068474l312.05982-320.0293v1024L1066.068474 575.9707h-247.991454z"  horiz-adv-x="5126" />

    
    <glyph glyph-name="zhuapai" unicode="&#58888;" d="M0 241.92V533.173333h98.506667L127.466667 569.6h109.44l28.96-36.426667h98.24V241.866667H0z m182.026667 236.64c-50.293333 0-91.04-40.746667-91.04-91.04 0-50.293333 40.746667-91.04 91.04-91.04S273.066667 337.28 273.066667 387.573333c0 50.24-40.746667 90.986667-91.04 90.986667z m0-145.6c-30.186667 0-54.613333 24.426667-54.613334 54.613333s24.426667 54.613333 54.613334 54.613334 54.613333-24.426667 54.613333-54.613334-24.426667-54.613333-54.613333-54.613333z"  horiz-adv-x="1060" />

    
    <glyph glyph-name="xia" unicode="&#58891;" d="M3545.551863000005 771.836631L2935.342812000005-83.39509199999998c-42.431179-59.47321-134.423368-59.47321-176.854547 0l-610.035153 855.405621c-39.30101 55.125754 9.912202 123.989471 88.340324 123.989471h1220.070307c78.775919-0.173898 127.815233-69.037616 88.68812-124.163369z"  horiz-adv-x="5479" />

    
    <glyph glyph-name="tiaojiao" unicode="&#58892;" d="M2853.5485170000047-13.844201999999996L2655.066879000004 184.63743599999998c65.613765 75.455829 105.6655 173.739781 105.6655 281.592406C2760.7323790000046 703.532957 2568.402032000003 896 2330.9622210000007 896 2093.522410999998 895.863305 1901.1920639999978 703.532957 1901.1920639999978 466.229842 1901.1920639999978 228.92672700000003 2093.522410999998 36.45968400000004 2330.9622210000007 36.45968400000004c81.88051 0 158.293207 23.374904 223.360191 63.153249l206.409967-206.409968s47.706675-47.706675 95.550045 0c47.569979 47.84337-2.733907 92.952833-2.733907 92.952833zM1995.2384589999976 463.769326c0 185.905666 150.774963 336.680629 336.68063 336.680629S2668.5997180000045 649.674992 2668.5997180000045 463.769326 2517.824755000003 126.952001 2331.919089000001 126.952001 1995.2384589999976 277.72696399999995 1995.2384589999976 463.769326z"  horiz-adv-x="4773" />

    
    <glyph glyph-name="bianji1" unicode="&#58893;" d="M2580.03248466667 896c-282.8 0-512-229.2-512-512s229.2-512 512-512 512 229.2 512 512-229.066667 512-512 512zM2710.6991506666714 584.5333330000001L2497.2324846666693 370.93333299999995l71.066666-71.066666L2766.1658176666715 497.733333l17.733333 17.866667-70.266666 71.6-2.933334-2.666667z m118.666667-24L2758.2991506666717 631.6l-24-23.6 71.066667-71.066667 24 23.6zM2473.6324846666685 347.06666700000005l-23.866667-94.666667 94.933333 23.6-71.066666 71.066667z m302.933333 4.266666v-130.933333c0-18-14.8-32.8-32.8-32.8H2416.299150666668c-18 0-32.8 14.8-32.8 32.8V547.733333C2383.6324846666676 565.733333 2398.299150666668 580.5333330000001 2416.299150666668 580.5333330000001h196.533334v65.466667H2416.299150666668c-54.4 0-98.266667-43.866667-98.266666-98.266667v-327.466666c0-54.4 43.866667-98.266667 98.266666-98.266667h327.466667c54.4 0 98.266667 43.866667 98.266667 98.266667v130.933333h-65.466667v0.133333z"  horiz-adv-x="5136" />

    
    <glyph glyph-name="baocun1" unicode="&#58894;" d="M2537.365818000003 896c-282.8 0-512-229.2-512-512s229.2-512 512-512 512 229.2 512 512-229.066667 512-512 512zM2835.6324840000048 496.4L2494.165818000002 154.93333299999995c-6.666667-6.666667-15.466667-10-24.133334-10-8.8 0-17.466667 3.333333-24.133333 10L2240.165818 360.66666699999996c-13.333333 13.333333-13.333333 34.933333 0 48.266666 13.333333 13.333333 34.933333 13.333333 48.266666 0L2470.032484000002 227.33333300000004l317.333334 317.333334c13.333333 13.333333 34.933333 13.333333 48.266666 0 13.333333-13.333333 13.333333-34.933333 0-48.266667z"  horiz-adv-x="5136" />

    
    <glyph glyph-name="shanchu" unicode="&#58895;" d="M2558.6991513333364 896c-282.8 0-512-229.2-512-512s229.2-512 512-512 512 229.2 512 512-229.066667 512-512 512zM2751.099151333338 608.666667h-98.266667c0 18.533333-14.4 40.8-32.133333 40.8H2508.165817333336c-17.733333 0-32.133333-22.4-32.133333-40.8h-98.266667c-21.733333 0-45.6-3.2-45.6-24.933334V550.133333h453.066667v33.6c0.133333 21.733333-12.4 24.933333-34.133333 24.933334zM2372.2991513333345 510.8v-320c0-32.533333 31.866667-72.266667 64.4-72.266667h255.466666c32.533333 0 53.866667 39.733333 53.866667 72.266667v320H2372.2991513333345z m107.333333-326.666667H2440.299151333335V467.333333H2479.6324843333355v-283.2z m98.4 0h-39.333333V467.333333h39.333333v-283.2z m98.533333 0h-39.333333V467.333333h39.333333v-283.2z"  horiz-adv-x="5136" />

    
    <glyph glyph-name="jiaohu" unicode="&#58898;" d="M688.072527 640.04555h1028.126464v-127.968H688.072527v127.968zM816.697896 256.141551h1028.126464v-128.187123H816.697896v128.187123zM1479.764964 876.041331c-4.601589 21.254959 10.956164 24.980055 23.884438 13.804767C1547.035813 848.212673 1745.780634 663.272619 1855.561401 561.38029c49.083616-43.167288 31.33463-49.521863-9.422301-49.521863H1533.011922s-46.235014 323.645095-53.246958 364.182904zM1093.669731-108.041353c4.601589-21.254959-10.956164-24.980055-23.884438-13.804767-43.386411 41.633425-242.131232 226.573479-351.911999 328.465808-49.083616 43.167288-31.33463 49.521863 9.422301 49.521863H1040.422773s46.235014-323.425972 53.246958-364.182904z"  horiz-adv-x="3654" />

    
    <glyph glyph-name="shouqi" unicode="&#58899;" d="M579.698664-128c-13.766374 0-27.700631 5.372244-38.277236 15.780966-21.153209 21.153209-21.153209 55.23338 0 76.386589l416.852529 416.852529L535.545537 803.748504c-21.153209 21.153209-21.153209 55.23338 0 76.386589 21.153209 21.153209 55.23338 21.153209 76.386589 0l461.005656-461.005656c21.153209-21.153209 21.153209-55.23338 0-76.386589l-454.961882-454.961882c-10.576605-10.576605-24.342979-15.780966-38.277236-15.780966z"  horiz-adv-x="1611" />

    
    <glyph glyph-name="xiala" unicode="&#58900;" d="M318.171429 627.565714c0 14.994286 5.851429 30.171429 17.188571 41.691429 23.04 23.04 60.16 23.04 83.2 0l454.034286-454.034286 460.617143 460.617143c23.04 23.04 60.16 23.04 83.2 0 23.04-23.04 23.04-60.16 0-83.2L914.285714 90.331429c-23.04-23.04-60.16-23.04-83.2 0l-495.542857 495.542857c-11.52 11.52-17.371429 26.514286-17.371428 41.691428z"  horiz-adv-x="1755" />

    
    <glyph glyph-name="fanhui2" unicode="&#58902;" d="M1175.55054-23.276874s-9.243853-23.717781-21.528447 0c0 0-137.076612 413.90569-471.436513 309.669082v-128.440907s-5.351704-75.532011-71.274973-26.393634L282.78893 415.319634s-69.693788 37.94845 4.257037 89.76268L619.094904 790.547096s49.989785 35.637487 61.909491-22.744744l0.364889-138.657798c0.12163-0.12163 623.230312-29.920893 494.181256-652.421428z"  horiz-adv-x="1448" />

    
    <glyph glyph-name="paichan" unicode="&#58903;" d="M2738.1553850000046 654.0404120000001h52.501993c18.579794 0 33.781443 15.201649 33.781444 34.062956v173.833677c0 18.72055-15.060893 34.062955-33.781444 34.062955h-52.501993c-18.579794 0-33.781443-15.201649-33.781443-34.062955v-173.833677c0.140756-18.861306 15.201649-34.062955 33.781443-34.062956zM2258.318134 654.0404120000001h52.501994c18.579794 0 33.781443 15.201649 33.781443 34.062956v173.833677c0 18.72055-15.060893 34.062955-33.781443 34.062955h-52.501994c-18.579794 0-33.781443-15.201649-33.781443-34.062955v-173.833677c0-18.861306 15.060893-34.062955 33.781443-34.062956zM2964.4910550000045 778.750241h-78.682611v-79.386392c0-56.302405-45.323436-102.04811-101.203574-102.04811h-37.4411c-55.880137 0-101.203574 45.604948-101.203574 102.04811l-0.422268 79.386392H2405.8304370000014v-79.386392c0-56.302405-45.323436-102.04811-101.203574-102.04811h-37.4411c-55.880137 0-101.203574 45.604948-101.203574 102.04811v79.386392H2087.2995779999983c-55.880137 0-101.203574-45.604948-101.203574-102.04811v-702.654021c0-56.302405 45.323436-102.04811 101.203574-102.04811h877.332233c55.880137 0 101.203574 45.604948 101.203574 102.04811v702.654021c-0.140756 56.443162-45.464192 102.04811-101.34433 102.04811z m-641.847422-729.256908H2077.446656999998v90.646873h245.05622v-90.646873z m0 151.171959h-248.152852v90.646873h248.152852v-90.646873z m0 151.031203h-248.152852V442.343368h248.152852v-90.646873z m325.850172-302.203162H2403.2968290000013v90.646873h245.05622v-90.646873z m0 151.171959H2400.3409520000014v90.646873h248.152853v-90.646873z m0 151.031203H2400.3409520000014V442.343368h248.152853v-90.646873z m325.850171-302.203162H2729.2877560000047v90.646873h245.05622v-90.646873z m0 151.171959H2726.1911240000045v90.646873h248.152852v-90.646873z m0 151.031203H2726.1911240000045V442.343368h248.152852v-90.646873z"  horiz-adv-x="5130" />

    
    <glyph glyph-name="kaiguanguan-copy1" unicode="&#58904;" d="M1021.76 383.8760000000003c-1.1368683772161603e-13 169.952-137.7700000000002 307.72699999999986-307.7240000000002 307.72699999999975l-404.235-3.126388037344441e-13c-169.955-1.1368683772161603e-13-307.72399999999993-137.7750000000002-307.72399999999976-307.7270000000002s137.77000000000015-307.7239999999999 307.72400000000005-307.72399999999993l404.235 3.126388037344441e-13c169.955 1.1368683772161603e-13 307.72399999999993 137.77200000000022 307.72399999999993 307.72400000000005zM993.6549999999997 383.22900000000027c1.1368683772161603e-13-154.236-125.0299999999999-279.26700000000005-279.2689999999997-279.26800000000014-154.23-8.526512829121202e-14-279.26400000000007 125.02999999999986-279.26400000000024 279.26699999999977-8.526512829121202e-14 154.24 125.0349999999998 279.26900000000023 279.26299999999975 279.26900000000023 154.238 8.526512829121202e-14 279.2690000000001-125.03099999999984 279.26900000000023-279.26899999999983z"  horiz-adv-x="1024" />

    
    <glyph glyph-name="kaiguanguan-copy" unicode="&#58906;" d="M2.24 384.124c0-169.95200001 137.77-307.727 307.724-307.727l404.235 0c169.955 0 307.724 137.775 307.724 307.727s-137.77 307.724-307.72400001 307.724l-404.23499999 0c-169.955 0-307.724-137.772-307.724-307.724zM30.345 384.771c0 154.236 125.03 279.267 279.269 279.268 154.23 0 279.264-125.03 279.264-279.267 0-154.24-125.035-279.269-279.263-279.269-154.238 0-279.269 125.031-279.269 279.269z"  horiz-adv-x="1024" />

    


  </font>
</defs>
</svg>
